/* XPM */
static char * elvis1_xpm[] = {
"32 32 25 1",
" 	c #000000000000",
".	c #0000FFFF0000",
"X	c #BEFBA6999658",
"o	c #082008200000",
"O	c #28A230C228A2",
"+	c #00000000FFFF",
"@	c #186110401040",
"#	c #104008200820",
"$	c #38E320812081",
"%	c #0000FFFFFFFF",
"&	c #28A228A21861",
"*	c #28A21C711861",
"=	c #38E328A22081",
"-	c #86177DF78617",
";	c #410338E34103",
":	c #BEFBBEFBCF3C",
">	c #28A2249230C2",
",	c #71C66DB679E7",
"<	c #38E330C238E3",
"1	c #4924514438E3",
"2	c #410338E328A2",
"3	c #38E330C228A2",
"4	c #FFFF00000000",
"5	c #30C230C228A2",
"6	c #38E334D330C2",
"             .... ....          ",
"              ..   ..  .        ",
"         ..    .. ..   ...      ",
"       . X.XXXX..X..XXX.        ",
"      .XXX..XXX..X..oO.XXXX..   ",
"     ..X.XX.+.. ...o...@XX.. .  ",
"    XX..++....o  .o#oo.o++..X   ",
"   XXXX...++ o@@$.@###oo.+..XX  ",
"   XX%+%.%++ o@o#&*=--*#-..+XX  ",
"   XX+%+%+%+ o##@ ;:::-#>+%+XX  ",
"   XX%+%+%++ #o#@ :::::#-+++XX  ",
"   XX+%+%+%+ @#   ::::,@-+%+XX  ",
"   XX%+%+%++ #*:  ::- --,%+%XX  ",
"   XX+%+%+++ @@- *----<--+%+XX  ",
"   XXX+%+%++ @@:: 1---&-+%+XXX  ",
"   XXX%+%++%+<@>;@::----++%XXX  ",
"    XX+%++%++ @>*2-:::-%+%+XX   ",
"    XX+%+%++% 3:3 -::--+++%XX   ",
"    XX%++++%++;:::44:-+%+%+XX   ",
"     XX+%+%++% 5  :::-++%+XX    ",
"     XX+++%+%++ 6 :--++%++XX    ",
"     XXX+%+%++%+  -++%+++XXX    ",
"      XX++%++%++++++++%+%XX     ",
"       XX+++%+++++%+%+++XXX     ",
"       XX%+%+%++%++++%++XX      ",
"        XX%+++%+%+%+%++XXX      ",
"         XX+%+%++%+%++XXX       ",
"          XX+%+%+%+++XXX        ",
"           XXX++%+%XXXX         ",
"            XXX%++XXXX          ",
"             XXXXXXXX           ",
"              XXXXXX            "};
