/* XPM */
static char * elvis2_xpm[] = {
"32 32 9 1",
" 	c #2081618530C2",
".	c #000000000000",
"X	c #965861850000",
"o	c #C71B92484103",
"O	c #F7DEB2CA0000",
"+	c #F7DEB2CA2081",
"@	c #F7DEB2CA1040",
"#	c #C71B71C630C2",
"$	c #E79DB2CA4103",
"                                ",
"                                ",
"             .......            ",
"            .........           ",
"         ..............         ",
"         ...............        ",
"        .................       ",
"        .................       ",
"        .....Xo..........       ",
"       .....OOOOO.........      ",
"       ....OOOOOOOOOOO....      ",
"       ....OOOOOOOOOOOO...      ",
"        ...OOOOOOOOOOO+..       ",
"        ...OOOOOOOOOOOO..       ",
"        ....OOOOOOOOOO...       ",
"        ......OOOO@O.oX..       ",
"        .................       ",
"        O..#oXX$..ooX.X.##      ",
"        #X.OOOOOX.OOOOO.O       ",
"        #O.#OOOOOOOOOOXO#       ",
"         O...X..OOo.Oo.O#       ",
"     .......#Oo#OOOOO...##      ",
".............##....O#.....X     ",
".............#@O.oOO.X......XX  ",
".............#..#.#@#.........XX",
"..............#oOO#O............",
"..............XXXXXX............",
"..............#oooo.............",
"................................",
"................................",
"................................",
"................................"};
