/* XPM */
static char * elvis_xpm[] = {
"48 32 4 1",
" 	c #000000000000",
".	c #FFFF0000FFFF",
"X	c #FFFFFFFF0000",
"o	c #FFFFFFFFFFFF",
"                                                ",
"                                                ",
"   ...............                ...........   ",
"   .. ..... .....                  ......   .   ",
"   . . ... . ....                  ..... . ..   ",
"   ... ..... ....                  ......   .   ",
"   .. ..... .....                  ..........   ",
"   . ..... .....      XXXooo  X    ..... .  .   ",
"   . ..... .....     XXooXooo XX  ......  . .   ",
"   .   . .   ... o  XXXoooooo XX  ...........   ",
"   ............. X  oooXoooo ooXX X.....    .   ",
"   ............. o  Xoo  ooooooo XXX....... .   ",
"   ............. X  oXoo oooo oo XoXX...    .   ",
"   .............  X ooXooo oo X .XXX.........   ",
"                    oXXXooX ooo ..X..........   ",
"   XX XXX XXXX  X ooXoXooo  ooX .X.....X.....   ",
"    XXX XXX   X X oooXoooooooX .XXX....X.....   ",
"   XX XXX X   X X XoooXo    oX XXoXX..XXX....   ",
"    XXX XX  XXX XX Xooooo  XoX .XXX..XXoXX...   ",
"   XX XXX  XX   XX XXoooooooX ...X....XXX....   ",
"    XXX X X XX XXX  XX oooXX  ..    ...X.....   ",
"   XX XXX XXX        XX  XX X ..      .X.....   ",
"    XXX X X XX ooo   XXXX   XX        .......   ",
"                  o o     XX XX        ......   ",
"    oo o o o o oo oo oooo  XXX o o     ......   ",
"    o  o o o o o  o  ooo  XX X  o      ......   ",
"    oo o o o o oo o  ooo X XX  o o     ......   ",
"    o  o  o  o  o o  oo  XXX  o o      ......   ",
"    oo oo o  o oo o  oo XX X o o      .......   ",
"                  o  oo  XXXX o      X ......   ",
"                                                ",
"                                                "};
