/* XPM */
static char * elvis3_xpm[] = {
"32 32 22 1",
" 	c #FFFFFFFFFFFF",
".	c #FFFF00000000",
"X	c #000000000000",
"o	c #9E79AAAA71C6",
"O	c #71C665954103",
"+	c #71C68A286185",
"@	c #618555554103",
"#	c #4103208130C2",
"$	c #618575D65144",
"%	c #8E3865955144",
"&	c #30C220812081",
"*	c #AEBA65955144",
"=	c #9E79451430C2",
"-	c #618530C22081",
";	c #8E38451430C2",
":	c #208120812081",
">	c #71C645144103",
",	c #514455554103",
"<	c #410345144103",
"1	c #30C2451430C2",
"2	c #514465955144",
"3	c #30C230C230C2",
" ..... ..X X.. X X.. ....X ....X",
"X.. X X.. X ..X X ..X ..X ..X . ",
" ....X ..X X ..X ..X X.. XX..X X",
"X.. X X.. X X.. X.. X ..X X ..X ",
" ..X X ..X X X.... X X.. X.X ..X",
"X.....X.....X X.. X X.... ....X ",
" X X X XooooooooO+oooooo X X X X",
"X X X X ooooooo@##$oooooX X X X ",
" X X X Xooooooo@o%+ooooo X X X X",
"X X X X oooooooOOOooooooX X X X ",
" X X X Xoooooo#&*=Oooooo X X X X",
"X X X X oooooo&&-=;;ooooX X X X ",
" X X X Xoooooo:#-=;;oooo X X X X",
"X X X X oooooo###-;=ooooX X X X ",
" X X X Xoooooo@@&->>,,+o X X X X",
"X X X X ooooo+#-&-->+O+oX X X X ",
" X X X Xooooo@##&&-;oooo X X X X",
"X X X X ooooo<&:&#;;ooooX X X X ",
" X X X Xooooo$&&-==>oooo X X X X",
"X X X X oooooO:&O--OooooX X X X ",
" X X X Xooooo1:$o,:,oooo X X X X",
"X X X X oooo2:<oo$:,ooooX X X X ",
" X X X Xoooo&&oooo:<oooo X X X X",
"X X X X ooo,:+oooo<&#oooX X X X ",
" X X X Xooo&,oooooo<&&oo X X X X",
"X X X X ooO-oooooooo@:3oX X X X ",
" X X X Xo@&+ooooooooo@-= X X X X",
"X X X X o+ooooooooooo*-#X X X X ",
" X X X Xooooooooooooo@#@ X X X X",
"X X X X X X X X X X X X X X X X ",
" X X X X X X X X X X X X X X X X",
"X X X X X X X X X X X X X X X X "};
