/* XPM */
static char *kde[] = {
/* width height num_colors chars_per_pixel */
"    32    32       18            1",
/* colors */
". c #000000",
"a c #400040",
"b c #404000",
"c c #404040",
"i c #800080",
"j c #808000",
"k c #808080",
"p c #c000c0",
"q c #c0c000",
"r c #c0c0c0",
"v c #ff00ff",
"y c #ff40c0",
"z c #ffc040",
"B c #ffff00",
"D c #ffff40",
"F c #ffff80",
"G c #ffffc0",
"H c #ffffff",
/* pixels */
"rrrrrrrrrrrrrrrrrrrrrrrrrrrrrrr.",
"rkkkkkkkkkkkkkkkkkkkkkkkkkkkkkk.",
"rkkkkkkkkkkkkkkkkkkkkkkkkkkkkkk.",
"rkkkkkkkkkkkkkkkkkkkkkkkkkkkkkk.",
"rkkcckkcckkcckkcckkcckkcckkcckk.",
"................................",
"cpvvvvvvvvva..........vvvvvvvac.",
"cpaivvapvvv............vvvaapac.",
".pvavvvpvvv............vvvv..a..",
".pvpvvvpvvv............vvvvvva..",
"cp.vvvvpvv...jBGD.rqq.pvvv.i.ac.",
"cp..vp..vv.c.BBHaHHqB.vvvvvvvac.",
".pvvvvvvvv.b.HHGHH.HBbBvvv...a..",
".pvvvvvvvv.b.FHcHHHrHqGzvvaa.a..",
"cpvvvvvvvv.q.HBHHrHq.zByvvvvvac.",
"c............DBGHbHH.vBvvvvvvac.",
".bBBbqBbbbBrHFGHHrHjpBzvvzvvva..",
".qBqBbB..bBqHHBc..HbBGByvBBvva..",
"c.BB.B.qBbBbBHHH.qHbvBBvBGByvac.",
"cbBBbbqqqjBbbDcHHDbpvbapvzyvvac.",
".qBqBbBB.....qB.BbBpv....zvvva..",
"..BB.bBqBrHc.qBB..Bb.....vvvva..",
"c.rcrk.crkrrrkrr.qqjrk...pvvvac.",
"c.H.Hr.cHr.r.rHc.B.b.c...pvvvac.",
"..HcHr.cHrHr.rHcBqB.Hr...pvvva..",
"..HcHcH.HkHr.rHjBq.kr....vvvva..",
"c..........r.rH.BBBr....Bpvvvac.",
"c.............................c."
"rkkcckkcckkcckkcckkcckkcckkcckk.",
"rkkkkkkkkkkkkkkkkkkkkkkkkkkkkkk.",
"rkkkkkkkkkkkkkkkkkkkkkkkkkkkkkk.",
"r...............................",
};
