/* XPM */
static char * normal_xpm[] = {
"56 46 19 1",
" 	c #FFFFFFFFFFFF",
".	c #BEFBBAEABEFB",
"X	c #000000001040",
"o	c #BEFBB6DABEFB",
"O	c #AEBAAAAAAEBA",
"+	c #AEBAA699AEBA",
"@	c #C71BBAEAC71B",
"#	c #000000000000",
"$	c #FFFF0000FFFF",
"%	c #FFFFFFFF0000",
"&	c #9E799A699E79",
"*	c #96589658AEBA",
"=	c #FFFFFBEEFFFF",
"-	c #FFFFF3CEFFFF",
";	c #965896589658",
":	c #A6999E79A699",
">	c #A69979E78E38",
",	c #B6DAAEBAB6DA",
"<	c #000000001861",
"                                                       .",
" ......................................................X",
" ......................................................X",
" ...o..o..o..o..o..o..o..o..o..o..o..o..o..o..o..o..o..X",
" O...O...+...O...O...+...O...O...+...O...O...+...O...O.X",
" ..o..@o...@o..@o.@o...@o..@o.@o...@o..@o.@o..@o.@o.@o.X",
" O.OOO##OO##OO##OO##OO##OO##OO##OO##OO##OO##OO##OO##.O.X",
" ...OO##############################################..OX",
" O.+###$$$$$$$$$$$$$$$################$$$$$$$$$$$##O.O.X",
" ...###$$#$$$$$#$$$$$##################$$$$$$###$##O+..X",
" O.+O##$#$#$$$#$#$$$$##################$$$$$#$#$$###.O.X",
" .O.O##$$$#$$$$$#$$$$##################$$$$$$###$###..OX",
" O.+###$$#$$$$$#$$$$$##################$$$$$$$$$$##O.+.X",
" .O.###$#$$$$$#$$$$$######%%%...##%####$$$$$#$##$##OO.OX",
" O.OO##$#$$$$$#$$$$$#####%%..%...#%%##$$$$$$##$#$###.O.X",
" OO.O##$###$#$###$$$#.##%%%......#%%##$$$$$$$$$$$###OOOX",
" O.O###$$$$$$$$$$$$$#%##...%....#..%%#%$$$$$####$##O.O.X",
" OOO###$$$$$$$$$$$$$#.##%..##.......#%%%$$$$$$$#$##OOOOX",
" O.OO##$$$$$$$$$$$$$#%##.%..#....#..#% %%$$$####$###.O.X",
" OOOO##$$$$$$$$$$$$$##%#..%...#..#%#$%%%$$$$$$$$$###OOOX",
" OOO####################.%%%..%#...#$$%$$$$$$$$$$##O.+OX",
" OOO###%%#%%%#%%%%##%#..%.%...##..%#$%$$$$$%$$$$$##OOOOX",
" OOOO###%%%#%%%###%#%#...%.......%#$%%%$$$$%$$$$$###OOOX",
" OOOO##%%#%%%#%###%#%#%...%.####.%#%% %%$$%%%$$$$###OOOX",
" &OO####%%%#%%##%%%#%%#%.....##%.%#$%%%$$%% %%$$$##OO&OX",
" OOO###%%#%%%##%%###%%#%%.......%#$$$%$$$$%%%$$$$##OOOOX",
" OO&O###%%%#%#%#%%#%%%##%%#...%%##$$****$$$%$$$$$###+&+X",
" OOOO##%%#%%%#%%%########%%##%%#%#$$*#*#*#$%$$$$$###OOOX",
" &O&####%%%#%#%#%%#OOO###%%%%###%%**#*#*#*#$$$$$$##O+&OX",
" O+O##################O#O#####%%#%%#*#*#*#*$$$$$$##OOOOX",
" &O&O###  # # # # #  #OO#OOOO##%%%# # #*#*#$$$$$$###+&OX",
" +&+O### ## # # # # ##O##OOO##%%#%## #*#*#*$$$$$$###O+&X",
" &O&####  # # # # #  #O##OOO#%#%%## # #*#*#$$$$$$##OO&+X",
" +&+#### ## ## ## ## #O##OO##%%%## # #*#*#*$$$$$$##O&+&X",
" &+&O###  #  # ## #  #O##OO#%%#%# # #*#*#*$$$$$$$###+&+X",
" &&+O#################O##OO##%%%%# #*#*#*%#$$$$$$###&&&X",
" &+&###############################################O+&+X",
"=&&&OO##OO##OO##OO##OO##OO##OO##OO##OO##OO##OO##OO#O&&&X",
" &+&+&+&+&+&+&+&+&+&+&+&+&+&+&+&+O+&+&+&OO+&+&+&+&+&+&+X",
"-&&&&&;&;&;&&;&&;&&;&&;&&;&&;&&;&&;&&;&&;&;&;&;&;&;&&&&X",
" &&;+&&&+&&&+&&&+&&&+&&&+&&&+&&&+&&&+&&&+&&&+&&&+&&&:&&X",
"=;&&*>&&&*>&&*>&&*>&&*>&&*>&&*>&&*>&&*>&&&*>&&&&*>&&&&&X",
" &+&&:&&&&+:&&:&&&+:&&:&&&+:&&:&&&+:&&:&&>,&:>*&&:+&&&;<",
"-&&&&;&*>&&;&&*>&&&;&&*>&&&;&&*>&&&*>&;&&*&&*:&&&&*>&&&X",
" &&&>*&&:&&&>*&&&&>*&&&&*&&>*&&&*&&&&&&>*&&&;&&>*&&:&&&X",
".XX<<XXXXXX<<XXXXX<XXXXXXX<<XXXXXXXXXX<<XXXXXXX<XXXXXXXX"};
