/* XPM */
static char *presley[] = {
/* width height num_colors chars_per_pixel */
"    32    32       33            1",
/* colors */
". c #101010",
"# c #202020",
"a c #303030",
"b c #383838",
"c c #424242",
"d c #4b4b4b",
"e c #535353",
"f c #5f5f5f",
"g c #636363",
"h c #707070",
"i c #747474",
"j c #7c7c7c",
"k c #808080",
"l c #9a9a9a",
"m c #a2a2a2",
"n c #a2a2a2",
"o c #a6a6a6",
"p c #aaaaaa",
"q c #afafaf",
"r c #c3c3c3",
"s c #cdcdcd",
"t c #cbcbcb",
"u c #cfcfcf",
"v c #d5d5d5",
"w c #d6d6d6",
"x c #dadada",
"y c #dcdcdc",
"z c #dedede",
"A c #e6e6e6",
"B c #eaeaea",
"C c #fbfbfb",
"D c #fcfcfc",
"E c #ffffff",
/* pixels */
"yxyvyxyvyxyvyxyvyxyvyxyvyxyvyxyv",
"vEEEEECpe.#.#.#.#.#.ajzEzBEEmEsa",
"ychmusd##a######...#.#bABDEEorqa",
"viiee##aa##########.#.#csEEBmEma",
"ymomh###.#.#...#.a##.#.#fDEEqDEa",
"vnlnca#.##a##.#.##a##.#.aBEEmEEa",
"ylkl#a...###.#.#.###.#.##mEEqEEa",
"vnlja#######a#a#a####.#.#clpmEEa",
"yioi###a#a##b#aa#ec#...#.cqlfefa",
"veeg##epsumga##c##mia.###arplnma",
"yedg#cqDEEEtka.afakwk#.#.cqmkmqa",
"veeeagzEEEEEzneamnlEsc###erplnma",
"yece#gBEEEEEBDEABAxEEm##.ghmklqa",
"vgaa#csEEEEEEEEECxzuCEi##gagiaca",
"ymdcacqDEEEEEEEDxroefsqa#g.gh#.a",
"vpeglamBEBzxzxrpeaaaagscei#gi.#a",
"ymciqeqAumkikmqe#iccfmBihl.gh#.a",
"vpeimjrgc###cuzprBrprusimj#gg.#a",
"ymhlqmqmfiqtuDEwBDxwxrqgqg.if#.a",
"vplpmusECuzEEEExzBCBsplgmg#je##a",
"ymqrqmuAEEEEEDEsuABAumkefe#lf#.a",
"vprpmpmuCEEECEExruCxrnic##ane.#a",
"ymqmqmomxABAxEEwqmxtqifc.##lc#.a",
"vnmpmplnsxzxmigcguspmgea#.#ee.#a",
"ymqmqmolqturBAqrxwqmkea#.#.#d#.a",
"vnmnmpmigpsxspmpiginiea.####a.#a",
"yrumqmfcfmutklqtqlumhc.#.#####.a",
"vpspmecegcmpsuljlpmpe##.#######a",
"ymumfeca##cmuwBDBwqlb..#.#.#.##a",
"vnlegnicca#emxzBzulc#.#.#.####aa",
"ygfgklhghe.#alomkgb#.#.#.######a",
"vaaaaaaaaaaaaaaaaaaaaaaaaaaaaaaa"
};
