/* XPM */
static char * small_xpm[] = {
"21 18 29 1",
" 	c #DF7DDF7DDF7D",
".	c #CF3CD34CCF3C",
"X	c #D34CD34CD34C",
"o	c #965892489658",
"O	c #CF3CCF3CCF3C",
"+	c #B6DAB2CAB6DA",
"@	c #BAEABAEABAEA",
"#	c #CF3CC71BCF3C",
"$	c #71C675D671C6",
"%	c #000000000000",
"&	c #FFFF0000FFFF",
"*	c #69A669A671C6",
"=	c #C71BC71BC71B",
"-	c #208128A25144",
";	c #FFFFFFFF0000",
":	c #BEFBBEFBBEFB",
">	c #FFFFFFFFFFFF",
",	c #BEFBBAEABEFB",
"<	c #C71BBAEAC71B",
"1	c #BEFBB6DABEFB",
"2	c #659565956595",
"3	c #9E799A699E79",
"4	c #96589658AEBA",
"5	c #B2CAB2CAB2CA",
"6	c #618561856185",
"7	c #AEBAA699AEBA",
"8	c #B6DAAEBAB6DA",
"9	c #8E388A288E38",
"0	c #5D755D755D75",
" ..................Xo",
"O+@++@++@++@++@++@+#$",
"O%%%%%%%%%%%%%%%%%%#$",
"O%%%&%&&%%%%%%&&&%%#$",
"O%&%&%&%%%%%%%&&&%%O*",
"O%%%&%&%%..%%%%&&&%O*",
"=%&&&&&%%.%%.%%&&%%=*",
"=%&&&&&%.-.-.%&&&&%=*",
"=%;;;;;%.....%&&&&%=*",
"=%;;;;;..--..%&&&&%:*",
"=%;;;;;>>...;;&&&&%,*",
"<%;;;;;;>.>;;;&---%,*",
",%%%%%%;>>>;;;-;--%12",
",%%>%>%;>>;;;-;--&%@2",
"@%%%%%%%%%%%%%%%%%%+2",
"@o3333433433433333356",
",788878878878888888<6",
"90000000000000000006-"};
