/* XPM */
static char * sand_xpm[] = {
/* width height ncolors chars_per_pixel */
"128 128 4 1",
/* colors */
"0	c #bfaa7f",
"1	c #aa8d54",
"2	c #95712a",
"3	c #805500",
/* pixels */
"10013121222222233013222201211012311202301111010301100112232010013220110011131113110331032220023233221222230211112130010210112210",
"10121113211203211013230112121012222112103212233301120002121012013211220132120222101120032311012022312323121332120020222320133230",
"23001201302202103122223112211022201113013213210111131312233210022321320110111331030321123311112011233221113321222201200330122330",
"12122121122112233132211022100223210132222212102133321212312001333321001332233211223231032110023022310210110211000202303311022211",
"23222312221032201102100131322013000222321210102232123201112111210100111200212130223311111101320120030130001211310233222303122210",
"32103103302222103012122321000122112322213101223321030013313012213120303110111031223213223123231220322211223233231211323212230300",
"30011032133013121023322131032222123231200003022220321220132232021112320111133210231202132221002222011112013321212323323011211110",
"22333311031122131321203111132101121010001221032111233111011201111333001221321100211212302111201122123033010111110002301012331113",
"32223011330223220112330121133201130121031223230103332013231000003033033312213203201111112003221211332102121110012111101011300003",
"33011023310232221222330231232200221331321201111210111132320221032021110022103103312120223323011213222233120321120102313213011112",
"22210013301222111113330012212303223201231311012303301022213110330000323221000303221221112212222312122323130320021023211100111022",
"20110033032301121100112332311013302112210100223013210200323022221212111220110212213220130002112012123121101321222232111213333222",
"31113212030231310113222102311322210111132001333222211313321033321212233330123232323210012332111021022120103222323331122202332222",
"01123132121203210112323111110311213232322122302112001202331232320112012123133112223313111113113222222121113102323301323210031211",
"30323131022222131112222120012212012223330122312110032011231122220102332122200132230311121323010232320011201113201000223100321312",
"21220021221221113212331011122010030223110031323103122222231220110122321213102223210110110221332320113132113202001222232120011122",
"11331302223201103112331300122010320222111131020133213200100311022022202210131311110100312311111130123211222023103111132110003311",
"22001212222221333213001111101112322111110220011101013200222010221112122311321302210231202323330011232101122020123331321012131111",
"22011123331231312113222220120113221012333111011000011231211131110123121333332233310020323122301312322212231101132302101202010113",
"32013232212201102100033221322122321112321111011323331330312021232322321200020001001331313132201103122102311223133233133102201223",
"01102220100103320011320131012122211213312302332322323231101020212320113313211103103221020120112103221010222323123321131122112233",
"02132111023232210122101001132232011222322032122000213211312220303000222012111132310211012331323003233212220101223211232331122231",
"22130201322011211322111102322231122111211002222221312103322012101023331111110220220211113220201112213003101322222021311022333213",
"02120210223222310221133223023320032112111203111201223212311132110222110102331221111201123200100122110111221211011020100012111133",
"12112202232113203022233112232121021033022113232103212000303311112230100233012303222113132132011231032122222301331010320013211021",
"23122312230101213111032133210101111122022102222211213323332230133120113323031003211021322321003211232121232123200023232233200121",
"23122102310103101221133332313230102012211013222312222122022221233111122330130211201222201101211002202133311011023131232121211030",
"21021000330312120100122331110110122322001232112311010230023211121102222310112211232212113222103332333010200101222121212031311222",
"12222111311223121211222111112323222233223232022010021201322000221233221212212312222111012222123331310112011111033110211010301302",
"33111023312222122232201111032223102222212121221010130002321111110032101332111002231102232211102122110222100001020200203332221333",
"21101322023233123310113230122220112331111002221033230322233000002223123231033333301233201200122131211223011011031321112121301212",
"32013200032001311101032002222010233000010122011120023132320113231012112130122322313321100212221110102211121002221220231032100013",
"21022113230110111111123112311110312311131123211121101121032111222322002012301221132100122302223003122201100332322220112332030102",
"10211113031321222123001123313202222111321122211320202022223100211111002032213300032233101002210032021212111331103221113301200010",
"13220013123101301013111233102003310113111233013301313023323020100001033331132210222122010212201102121202110323122220123212012101",
"22011222023013331123122223030013311201123121101123311022301010120222220031121021332121130102101232011111233321122021111323222013",
"22321133221222231102232131010113301311133131021332101111111212323122201211030131101103103222133223330133233223221030122120330202",
"23200121320012211132323011113123103200132001101201101020331213210332011211011331111003011223200100201223110101211133321223221313",
"21011110311023111113010101123221202112321133123311110022322331101011212331102220133111010101211233301133121103001131111110323211",
"22300122311032000323320200321221212222313221113022323222122201122212201223333132121022122333213332111220021122122230113322311102",
"00112223201222212321211202213301023303011323222321012222332212132222222221300010131021323230103022222310002231323210222201111032",
"22203222111211203321012022002300032001133232223223023221320003111311200022302212222333301321101032301020232201323012231211101221",
"20310202003023101210023112122213113312133212001310133121220200113111002223210013212211201120111101201020233203010122222201123210",
"30102002122221122321230233130213222301121113000201022120210331222011111120102311130212203231223123200332211102132332122111221212",
"01023132303213322331220331231323222011133222121211220120003101322102212011013121111213210232013123212210201123222220012100221201",
"20023221001222231223100111203210222011332220123311230333021001012100010021132230223203003310010030001210100123332311110011013103",
"21023111132222230111011301103110230213222120222012212230110022220111320000000223311211000101132111203321130321202221120222012223",
"11033010132101200220312323321202300221211001012133330010102301101112230322221231022010001301223033132321230323221011231310033000",
"12002111221103212222312131211332210212102002112013211200022303221132311222122321222010211213200231331231112331121321322323221101",
"11123203221002201332312122112310100111113212120000111322222100100031201212222332311322010112322312323220113223320232220213310021",
"20222312210323001330010010133010212111020002221100310212122003131112321233213211210102131003232332022331003021210221112223021122",
"10310101303223122311102332322123202022022322300333313301033132121122021321101111112220022322232121220000112330103330111011000223",
"20022210003112020120122331321011201133333211111112332210322012332121023011221000222203233202232001010111122310021112011002122222",
"00222332222323032320113111311112222021222322220202111221322003222223312111110122201100222021231101111102211010132013232322021133",
"12323220012321122222032013103023232211220121231112032113212002322022312110200032322212322330231211100033222322122023322310321122",
"32222201122022000101121012220133301313102200101213122223023002031110112212223322122112110110320101133322312101131021222111102231",
"21210110321210011101232222112222111212221111111223233322113102300201103012322221022021000010221211022013122312231332021001213121",
"22301220123110213222230101013321120230011232222132101331122110211201333033302333310110221012220011111032022202201033220113302003",
"13012200210100112111033112123212320301010222202103203231111012222321231113312022310111012332221322112222323100101332312011102022",
"13221201112132332121112123120130012211122320111022113231020203220321030122110111110230232022111300123311010012032230200120113230",
"21220230120131223000222111223321033011133221131013221222022222320220021322011303110211111232112311133332031123033320001021232223",
"22301221000322332132320002311202320221113222020023211121123232210311022220020113222321222232333231332210010101123201110121333331",
"21013132021222211130200022023112203011233331021323001220011020111110323111222312200121122231201022002131222323332201001221222201",
"20022031000232111001231321333332312130322120033330100230100101001122312113331111113221123200211301032320122031112111000331003012",
"10302222011223110112312200101121113100223220123210230301331303032021112112313213311011211013011202112101231021103101213321122011",
"30013220100232011033111002001030113102223121122011301122312212121331021101213232111100233023122122202222330101333101213232301003",
"21011101022312201010222330100221122012103232000110102222203321032200320113333022013100230023221231211221221222332111133020121222",
"11132321022103011222213230013310223110012222011322122210112010233112211222211220023233201322000301202322221321130133222120301303",
"10222130321233301103202200123310323022213221123210322011102011211331001013323331132132221003112212031120112110103223210012302212",
"33321130101010213112000113112111222323332221110122201112132122211211101112102311233033300233101113221231222000223330112012122210",
"20211230330310012133200223010002220321302232101121111102322302311320100213112212333121222232133210022231121111310122123212300113",
"13200222201322213320011323222320231131121101011221221202321012310230032212313133210022210000111111331022201112132321131012113101",
"22301321112223112310101232321011222211031211131221133232110232231223021123213220121113220201311131210110100010023321120321022110",
"33212300022311012112113220210103301003010100213322230131102223233120012221133231331233111202320332300132010103231232010110231012",
"11332302220001011012112122311002032211032200223023021221111021211120112212333110202221012113300203111100132222221223112001331221",
"31210102203221003222132322111122133100111020310021131231232221102021122113312021101300112233200100111322121222311111002012031231",
"22221310112010023301310032331113232321102222312222103311113200011020111132312121112100102313010323212322321230321220222033132231",
"22223111133111032313103031211103101110032010113212111102122010231321121210201120002100232212131123112222231020211111232113123311",
"12321103011120232122121023201321021222201121131013233232101000321121331301301220311113222212130021103323211020111222022102232321",
"12321022032203330011323222300231211332232131131333110220132212223223202202311211303313013111101031222110101331111321133201113100",
"22311231112212223102212212210231200210102023233223113201223322233222102313332211203111221103011122200101213330112231322300123000",
"22211200312213202311122300001021010211100130212122132021131110112330101112222233223220332333122233113021211000133110012000221010",
"32012333113323321112033111123011123312301212111001312130031210023200110330121120022101123113321120111021121002211111230023312103",
"30132000021111013020122012323013321002022232232032212120131122331211333301011111321110131321001310221222221333111322212320301022",
"22121111003232010131332202232233322113322232101031112233200112121201212223133002310013330211210210013230222222112222031032121121",
"31010011010222320330230002231001203121011201102231322232001302111232111000011102013131222311211011232031102112112312132332031233",
"10222022222312201321312111213201103111110210221321210211012311001221121212200332030112220110122213011200130121123212233231123011",
"11220132010333112232201002213102333102021201111021111220012121322331001222123310122232211100222212013303320331223112122110301011",
"33221022022201121322012001020113222221132212201220103223101022312021311232222021021312100001322211222123300221323101321002302102",
"21211321012232210311100000231131222000123233003220031201101230002221132201231000200110002123213331323231002223212212321311220013",
"31233211023210131123121202200002323111032222133102233201011230132303232223200013122111010002223110112121333231011103221220210033",
"00311112323111011111123212110223322011232101032332233312223332032212201132203333130132323333112220122102300103231122311100211223",
"01011031101111112002233223112233200122231010322101332222010121112020110101221213131323232012233200332312012311200011000222211210",
"21122221012112103113111010132331232222131101003123332102121202122021113010211311101231201002123103321112131032322020110333201233",
"21020301112202222112111122220021301023233003032130211122001203223322112110300013022001200012332323211302230200201122031213310222",
"00330311123323012011222230321221122111031112332201210131112212012302111122201020333111321323212201102232232200001130031213231222",
"10312202232113211110222312231322120022300032302120211231112222120113113123213020202211213322313010102112201001203311222202310221",
"13313332030023101002211220102320221223202322213100111221111223212002102012302222333001311122331101332222002210202112222323312311",
"12212223322113100023311003310120110110202320100003120202322231112103001122222033320011311230303111112100223201221012122022112000",
"01211111131123101322203322112321112223222100111223323222100211112122103321123030011021131313212111123133210012233210223101120011",
"21310101231211012221212332110211312312311031000122212123023201030231010333011120121231123213111001220122202223311103212112120123",
"01201003230122333311103211302232113333101331112320113232222102221230202300101210010233233223331211232121103221133323321011101300",
"11311112320222122111122100333212333323122132022232223223102112122322113323133001021112323012333112222221123321332331020110113202",
"12113233301231032011122123200133001011231101012231112101022200002333012221133223330212231103320003132211332123123111321322123220",
"20122102132211220000310323230200101200231223012211122120023110122121001012032223332123310122211202233100222001320020103201122221",
"12220122030122012022221213210122123110301010031311001221232111223301102320122200100133101031111011323213200112111210011110330021",
"33222323133322112323232322201120101012310210111302202331001103212212011201113330022220011322111011200003130330111011010211211121",
"23310201021112332111010110011322121112311212133212112320023002113011102222220111220322300332231002311012231330011332222222211230",
"32111233002311301112012203231300011110211232231302102030232232102202322220123221122101323331132222311222101220222323222200003223",
"12101130123010211222221122223202001020101011030332323211312112123201111111032220120110201211032012301311012221001212122112321222",
"10011221022212202121311110333333022221111132222233022302213011332233320102122130011113001101223112231111122213201222021120333230",
"13221222120022123111001222201101110033213222313210010103303120113123220012012200023222011023222133100100030312311321111232322120",
"13232321101022220111122210201111000232212221223202111111011120012022012330123201333112213232131012101103312212222221232321021132",
"12012010101233110012100120210110023221203221222000031002101100123010012001100002323012303223220123212012203210021111333222010021",
"11122010011233130102001210002211220003111031130002321312330100311133122010132212300102313013212320101112202121220102233321110020",
"23201122233300210212211221221232202231121223010232100232201233323321202002132102213323213213303100011213223221211023210011310300",
"22311112222213211113111331102311223012223322112110100131322210232122211122033232231132112312111012333312333111012111001031212201",
"20111002300132121103211311130111321123023221011010232231012111311201101232220111233221112233122122201220000111232122201221203012",
"23101222201032232303112222220333311320322320020120202203113113111202121233332132221003101332111131011101111100222233113213122012",
"11122303111321011202122210111312212312322100131230232010123113232131031221111032211113222332012330110201022322332120121020132012",
"31033011212032222321120223013332102202220120332220032202312103110122232211012331111122202231002201123210223323332011222331203112",
"12123032113222123220322231132232223023200031223013231103232012212230120021232023331121101312222111123332310322232031001322012023",
"03323222230121102210323222222213213100012220312133321323123111211011112220113113110011223102202001132321012310123101312220222123",
"11120012130221211102213121102200332133223211323132102232231022210133223200222121011312310232100112122000121012331013122211301112",
"03100013220223301012201231231203210213310012322310002020111111032022033200113310211123332221111011221011321132330102230223311202",
"21121113002311110113223322200101012213313322333123221220031311131122223100132113322121011331001121230112210223200003111201213113",
"32200223200222011023323320200120222320102132232021332112122302110110022110222222200012122321001100122200022331011232320223221122",
"31103322113211032210211101201101202302231111310030100000022131101323221112232000310332131231123222230112333331312222310310111220"};
/* fractile 1.1 */
